<svg width="26" height="26" viewBox="0 0 26 26" fill="none" xmlns="http://www.w3.org/2000/svg">
<path fill-rule="evenodd" clip-rule="evenodd" d="M5.6875 20.3125V9.75H20.3125V20.3125C20.3125 21.6587 19.2212 22.75 17.875 22.75H8.125C6.77881 22.75 5.6875 21.6587 5.6875 20.3125ZM8.9375 18.6875H10.5625V13H8.9375V18.6875ZM13.8125 18.6875H12.1875V13H13.8125V18.6875ZM15.4375 18.6875H17.0625V13H15.4375V18.6875Z" fill="black"/>
<path fill-rule="evenodd" clip-rule="evenodd" d="M17.0625 6.5H21.9375C22.3862 6.5 22.75 6.86377 22.75 7.3125C22.75 7.76123 22.3862 8.125 21.9375 8.125H4.0625C3.61377 8.125 3.25 7.76123 3.25 7.3125C3.25 6.86377 3.61377 6.5 4.0625 6.5H8.9375V4.0625C8.9375 3.61377 9.30127 3.25 9.75 3.25H16.25C16.6987 3.25 17.0625 3.61377 17.0625 4.0625V6.5ZM15.4375 4.875H10.5625V6.5H15.4375V4.875Z" fill="black"/>
</svg>
