<svg width="14" height="21" viewBox="0 0 14 21" fill="none" xmlns="http://www.w3.org/2000/svg">
<path d="M6.17507 15.1421C5.28757 14.9619 4.49136 14.4762 3.92503 13.7695C3.36761 13.06 3.06867 12.1817 3.07751 11.2795V4.2369C3.06984 3.88312 3.09242 3.5293 3.14501 3.17936C3.31195 2.29941 3.77838 1.50438 4.46504 0.929325C5.18632 0.316678 6.10541 -0.0133782 7.05165 0.000415503C7.9979 0.0142092 8.90702 0.37092 9.61014 1.00433C10.2848 1.6074 10.7278 2.42706 10.8626 3.32187C10.9001 3.64796 10.9151 3.97623 10.9076 4.30438V11.3095C10.9091 11.7647 10.8304 12.2166 10.6751 12.6445C10.3548 13.5353 9.72203 14.2795 8.89437 14.7388C8.0667 15.1982 7.10042 15.3414 6.17507 15.1421Z" fill="white"/>
<path d="M12.0244 10.6394C12.1855 10.4769 12.4037 10.3837 12.6326 10.3798C12.864 10.3798 13.0861 10.4712 13.2504 10.6342C13.4148 10.7971 13.5081 11.0184 13.5101 11.2498V11.6998C13.4644 12.3632 13.3177 13.0158 13.0751 13.6349C12.9409 13.972 12.7804 14.298 12.5951 14.6099C12.4122 14.9036 12.2092 15.1842 11.9876 15.4499C11.1499 16.4535 10.0283 17.1804 8.77003 17.5349C8.47254 17.6179 8.16914 17.6781 7.8625 17.7149V19.2675H10.6225C10.8508 19.2732 11.0679 19.367 11.2287 19.5291C11.3894 19.6913 11.4813 19.9092 11.4851 20.1375C11.4831 20.3656 11.3916 20.5839 11.2303 20.7452C11.0689 20.9065 10.8507 20.998 10.6225 21H3.37742C3.16158 20.9799 2.96103 20.8799 2.81503 20.7197C2.66903 20.5595 2.58811 20.3505 2.58811 20.1337C2.58811 19.9169 2.66903 19.708 2.81503 19.5478C2.96103 19.3875 3.16158 19.2876 3.37742 19.2675H6.13748V17.7225C5.04817 17.573 4.01531 17.1469 3.13743 16.4849C2.85117 16.2749 2.58274 16.0416 2.33492 15.7874C1.15818 14.5661 0.497369 12.9383 0.489868 11.2423C0.497455 11.0147 0.5918 10.7986 0.753544 10.6383C0.915289 10.4779 1.1322 10.3855 1.35989 10.3798C1.58871 10.3837 1.80697 10.4769 1.9681 10.6394C2.12923 10.8019 2.2205 11.021 2.22242 11.2498C2.21123 11.4597 2.21123 11.67 2.22242 11.8799C2.28636 12.296 2.39704 12.7036 2.5524 13.0949C2.72376 13.4784 2.93494 13.8429 3.18243 14.1824C3.44178 14.4992 3.73333 14.7883 4.05243 15.0449C4.38899 15.2988 4.75396 15.5128 5.13995 15.6824C5.52925 15.8344 5.93426 15.9426 6.34749 16.0049C6.55484 16.0161 6.76263 16.0161 6.96999 16.0049H7.08251C7.26984 16.0161 7.45768 16.0161 7.64502 16.0049C8.05824 15.9426 8.46323 15.8344 8.85252 15.6824C9.23852 15.5128 9.60349 15.2988 9.94005 15.0449C10.2592 14.7883 10.5507 14.4992 10.81 14.1824C11.0575 13.8429 11.2687 13.4784 11.4401 13.0949C11.5954 12.7036 11.7061 12.296 11.7701 11.8799C11.7813 11.67 11.7813 11.4597 11.7701 11.2498C11.772 11.021 11.8632 10.8019 12.0244 10.6394Z" fill="white"/>
</svg>
